<svg width="48" height="48" viewBox="0 0 48 48" fill="none" xmlns="http://www.w3.org/2000/svg">
<path fill-rule="evenodd" clip-rule="evenodd" d="M24 48C37.2548 48 48 37.2548 48 24C48 10.7452 37.2548 0 24 0C10.7452 0 0 10.7452 0 24C0 37.2548 10.7452 48 24 48ZM14.2613 33.7387C12.9167 32.394 12.9167 30.214 14.2613 28.8693L19.1306 24L14.2613 19.1307C12.9167 17.786 12.9167 15.606 14.2613 14.2613C15.606 12.9167 17.786 12.9167 19.1307 14.2613L24 19.1306L28.8693 14.2613C30.214 12.9167 32.3941 12.9167 33.7387 14.2613C35.0833 15.6059 35.0833 17.786 33.7387 19.1306L28.8693 24L33.7387 28.8693C35.0833 30.214 35.0833 32.3941 33.7387 33.7387C32.3941 35.0833 30.214 35.0833 28.8693 33.7387L24 28.8693L19.1307 33.7387C17.786 35.0833 15.606 35.0833 14.2613 33.7387Z" fill="#FF6B6B"/>
</svg>
